<svg width="24" height="24" viewBox="0 0 24 24" fill="#70707B" xmlns="http://www.w3.org/2000/svg">
<path d="M5.25 3.5C3.45507 3.5 2 4.95507 2 6.75V17.25C2 19.0449 3.45507 20.5 5.25 20.5H18.75C20.5449 20.5 22 19.0449 22 17.25V6.75C22 4.95507 20.5449 3.5 18.75 3.5H5.25ZM8.75 8.5C9.7165 8.5 10.5 9.2835 10.5 10.25C10.5 11.2165 9.7165 12 8.75 12C7.7835 12 7 11.2165 7 10.25C7 9.2835 7.7835 8.5 8.75 8.5ZM3.5 17.25V16.5L7.5 12.5L11.5 16.5L15.5 12.5L20.5 17.5V17.25C20.5 18.2165 19.7165 19 18.75 19H5.25C4.2835 19 3.5 18.2165 3.5 17.25Z"/>
</svg>
